<?xml version="1.0" standalone="no"?><!DOCTYPE svg PUBLIC "-//W3C//DTD SVG 1.1//EN" "http://www.w3.org/Graphics/SVG/1.1/DTD/svg11.dtd"><svg t="1547977477513" class="icon" style="" viewBox="0 0 1024 1024" version="1.1" xmlns="http://www.w3.org/2000/svg" p-id="798" xmlns:xlink="http://www.w3.org/1999/xlink" width="128" height="128"><defs><style type="text/css"></style></defs><path d="M833.35931919 62.09695341h64.27186301a128.5437274 128.5437274 0 0 1 128.5437274 128.5437274v706.99050139a128.5437274 128.5437274 0 0 1-128.5437274 128.5437274H126.3688178a128.5437274 128.5437274 0 0 1-128.5437274-128.5437274V190.64068081a128.5437274 128.5437274 0 0 1 128.5437274-128.5437274h64.27186301V29.9610219a32.13593151 32.13593151 0 0 1 64.27186437 0v32.13593151h514.17490964V29.9610219a32.13593151 32.13593151 0 0 1 64.27186437 0v32.13593151zM62.09695341 254.91254518v64.27186302h899.80609318v-64.27186302H62.09695341z m277.0117327 151.68159887v63.62914512h237.80589615L410.45045551 865.4952507h74.5553616l162.6078153-402.34186654v-56.55924011h-308.5049463z" p-id="799"></path></svg>