<?xml version="1.0" standalone="no"?><!DOCTYPE svg PUBLIC "-//W3C//DTD SVG 1.1//EN" "http://www.w3.org/Graphics/SVG/1.1/DTD/svg11.dtd"><svg t="1547977330912" class="icon" style="" viewBox="0 0 1024 1024" version="1.1" xmlns="http://www.w3.org/2000/svg" p-id="768" xmlns:xlink="http://www.w3.org/1999/xlink" width="128" height="128"><defs><style type="text/css"></style></defs><path d="M190.64068081 62.09695341h127.77246565a32.13593151 32.13593151 0 0 1 32.13593151 32.1359315v31.81457256a32.13593151 32.13593151 0 0 0 32.1359315 32.13593289h259.04774754a32.13593151 32.13593151 0 0 0 32.13593151-32.13593289V94.23288491a32.13593151 32.13593151 0 0 1 32.13593287-32.1359315H833.35931919a128.5437274 128.5437274 0 0 1 128.5437274 128.5437274v706.99050139a128.5437274 128.5437274 0 0 1-128.5437274 128.5437274H190.64068081a128.5437274 128.5437274 0 0 1-128.5437274-128.5437274V190.64068081a128.5437274 128.5437274 0 0 1 128.5437274-128.5437274z m128.54372739 321.35931919a32.13593151 32.13593151 0 0 0 0 64.27186302h385.6311836a32.13593151 32.13593151 0 0 0 0-64.27186302H319.1844082z m0 257.0874548a32.13593151 32.13593151 0 0 0 0 64.2718644h385.6311836a32.13593151 32.13593151 0 0 0 0-64.2718644H319.1844082z" p-id="769"></path><path d="M383.4562726-2.1749096m32.1359315 0l192.8155918 0q32.13593151 0 32.1359315 32.1359315l0 64.27186301q0 32.13593151-32.1359315 32.13593289l-192.8155918 0q-32.13593151 0-32.1359315-32.13593289l0-64.27186301q0-32.13593151 32.1359315-32.1359315Z" p-id="770"></path></svg>