<svg t="1582095422244" class="icon" viewBox="0 0 1024 1024" version="1.1" xmlns="http://www.w3.org/2000/svg" p-id="2583" xmlns:xlink="http://www.w3.org/1999/xlink" width="128" height="128"><defs><style type="text/css"></style></defs><path d="M413.2352 3.47136c17.01888 0.00512 33.97632 2.05312 50.5088 6.09792a248.9344 248.9344 0 0 1 47.2576 16.37888 213.53984 213.53984 0 0 1 39.3216 23.41376 141.71136 141.71136 0 0 1 26.69568 26.22976 206.72 206.72 0 0 1 33.55136 65.98144 482.66752 482.66752 0 0 1 14.79168 68.79744c3.2 25.12384 4.7616 50.432 4.68992 75.76064a35.66592 35.66592 0 0 1 9.74336 12.15488c2.49344 5.376 4.30592 11.0336 5.40672 16.84992 1.55136 8.33024 1.79712 16.84992 0.72192 25.25696a103.17312 103.17312 0 0 1-7.5776 31.34976 65.21344 65.21344 0 0 1-12.98944 18.25792 42.4192 42.4192 0 0 1-16.59392 10.28096 932.4288 932.4288 0 0 1-8.65792 29.94176c-3.2512 8.1152-6.49728 16.0512-10.10176 23.87968a65.03936 65.03936 0 0 1-12.98944 18.25792 895.12448 895.12448 0 0 0-27.41248 23.8848 58.1632 58.1632 0 0 0-14.06976 33.2288 125.96224 125.96224 0 0 0-1.80736 28.53376 86.67648 86.67648 0 0 0 7.5776 28.86656c1.2288 2.60096 6.21568 5.71904 4.04992 7.59296-90.40384 78.16192-124.2624 212.79232-56.89856 343.96672 2.30912 4.50048-10.04544 0.59904-14.97088 0.8704-23.08608 1.25952-43.2896 1.87392-60.24704 1.87392-16.95744 0-36.79744-0.6144-59.52512-1.87392-22.7328-1.26464-45.81888-2.95936-69.9904-5.16096a2655.9744 2655.9744 0 0 1-71.79264-7.50592 1641.14432 1641.14432 0 0 1-64.93696-8.87296c-19.4816-3.10272-35.71712-6.24128-49.42336-9.37984a65.02912 65.02912 0 0 1-25.25696-9.37984 82.41664 82.41664 0 0 1-13.71136-45.85472 371.56864 371.56864 0 0 1 3.968-99.24608 78.8992 78.8992 0 0 1 25.97376-52.8896 169.28768 169.28768 0 0 1 50.14528-28.86144 651.9552 651.9552 0 0 1 59.52512-19.18976 184.4224 184.4224 0 0 0 54.4768-24.35584 128.90112 128.90112 0 0 0 28.13952-23.41376 76.81024 76.81024 0 0 0 14.06464-22.47168c3.16928-7.3984 4.76672-15.37024 4.68992-23.41376 0-8.10496-0.36352-17.16224-1.08544-27.16672a52.48 52.48 0 0 0-14.06976-34.16576 484.5824 484.5824 0 0 0-27.41248-25.75872 57.68704 57.68704 0 0 1-12.26752-18.25792A1711.29856 1711.29856 0 0 1 235.008 430.08a932.4288 932.4288 0 0 1-8.65792-29.94176 39.18848 39.18848 0 0 1-12.2624-6.56384 73.20576 73.20576 0 0 1-11.5456-13.09696 78.27456 78.27456 0 0 1-10.46016-24.35584 65.664 65.664 0 0 1-3.968-28.85632c0.60928-7.66464 2.18624-15.21664 4.68992-22.48192a62.26944 62.26944 0 0 1 11.5456-19.6608 469.87776 469.87776 0 0 1 3.60448-71.13728 436.85376 436.85376 0 0 1 12.63104-64.57856 201.5232 201.5232 0 0 1 27.776-61.7984 173.2608 173.2608 0 0 1 37.51936-42.60864 187.3152 187.3152 0 0 1 42.20928-25.75872 175.104 175.104 0 0 1 43.2896-12.62592 277.36576 277.36576 0 0 1 41.85088-3.28192v0.13824z m0 0" fill="" p-id="2584"></path><path d="M720.57856 802.93376l-60.84608-73.71264-49.8176 45.75232 60.81536 73.6768-1.21344 1.11616 44.3136 51.10784 49.82272-45.75232 170.8032-156.86656c17.36192 31.04768 28.1088 66.31424 28.1088 104.42752 0 118.89664-96.384 215.28064-215.28064 215.28064-118.89664 0-215.28064-96.384-215.28064-215.28576 0-118.89664 96.384-215.28576 215.28064-215.28576 56.33536 0 107.1872 22.12864 145.55648 57.5488l-172.2624 157.99296z" fill="" p-id="2585"></path></svg>